<?xml version="1.0" encoding="UTF-8" standalone="no"?>
<svg
   width="434.92"
   height="110.288"
   viewBox="0 0 434.92 110.288"
   version="1.1"
   id="svg1"
   sodipodi:docname="logo.svg"
   inkscape:version="1.3.2 (091e20e, 2023-11-25, custom)"
   xmlns:inkscape="http://www.inkscape.org/namespaces/inkscape"
   xmlns:sodipodi="http://sodipodi.sourceforge.net/DTD/sodipodi-0.dtd"
   xmlns="http://www.w3.org/2000/svg"
   xmlns:svg="http://www.w3.org/2000/svg">
  <defs
     id="defs1" />
  <sodipodi:namedview
     id="namedview1"
     pagecolor="#ffffff"
     bordercolor="#000000"
     borderopacity="0.25"
     inkscape:showpageshadow="2"
     inkscape:pageopacity="0.0"
     inkscape:pagecheckerboard="0"
     inkscape:deskcolor="#d1d1d1"
     inkscape:zoom="1.3095152"
     inkscape:cx="193.20127"
     inkscape:cy="1.9091035"
     inkscape:window-width="1920"
     inkscape:window-height="974"
     inkscape:window-x="-11"
     inkscape:window-y="-11"
     inkscape:window-maximized="1"
     inkscape:current-layer="Group_1" />
  <g
     id="Group_1"
     data-name="Group 1"
     transform="matrix(0.97373678,0,0,0.97866695,-571.90354,-422.42752)">
    <g
       id="Group_1-2"
       data-name="Group 1"
       transform="translate(-556,633.712)">
      <g
         id="Group_12"
         data-name="Group 12"
         transform="translate(1089.23,-804)">
        <g
           id="Group_1-3"
           data-name="Group 1"
           transform="translate(-761.774,69.042)">
          <rect
             id="Rectangle_4"
             data-name="Rectangle 4"
             width="31.194"
             height="31.194"
             transform="rotate(45,-233.21986,1325.0722)"
             fill="rgba(91,79,185,0.8)"
             style="fill:#5b4fb9;fill-opacity:1;stroke:none"
             x="0"
             y="0" />
          <path
             id="Rectangle_11"
             data-name="Rectangle 11"
             d="M 0,0 H 31.194 V 31.194 H 4 a 4,4 0 0 1 -4,-4 z"
             transform="rotate(45,-270.87352,1309.4755)"
             fill="rgba(91,79,185,0.9)"
             style="fill:#5b4fb9;fill-opacity:1" />
          <rect
             id="Rectangle_7"
             data-name="Rectangle 7"
             width="31.194"
             height="31.194"
             transform="rotate(45,-211.16236,1378.3237)"
             fill="rgba(91,79,185,0.8)"
             style="fill:#5b4fb9;fill-opacity:1"
             x="0"
             y="0" />
          <rect
             id="Rectangle_9"
             data-name="Rectangle 9"
             width="31.194"
             height="31.194"
             transform="rotate(45,-248.81652,1362.7258)"
             fill="rgba(91,79,185,0.9)"
             style="fill:#5b4fb9;fill-opacity:1"
             x="0"
             y="0" />
          <path
             id="Rectangle_13"
             data-name="Rectangle 13"
             d="m 0,0 h 31.194 v 27.194 a 4,4 0 0 1 -4,4 H 0 Z"
             transform="rotate(45,-264.41388,1400.3812)"
             fill="#5b4fb9" />
          <path
             id="Rectangle_14"
             data-name="Rectangle 14"
             d="m 0,0 h 31.194 v 27.194 a 4,4 0 0 1 -4,4 H 0 Z"
             transform="rotate(45,-286.47138,1347.1297)"
             fill="#5b4fb9" />
          <path
             id="Rectangle_15"
             data-name="Rectangle 15"
             d="m 0,0 h 31.194 v 27.194 a 4,4 0 0 1 -4,4 H 0 Z"
             transform="rotate(45,-242.35638,1453.6327)"
             fill="#5b4fb9"
             style="fill:#5b4fb9;fill-opacity:1" />
          <rect
             id="Rectangle_10"
             data-name="Rectangle 10"
             width="31.194"
             height="31.194"
             transform="rotate(45,-226.75902,1415.9773)"
             fill="rgba(91,79,185,0.9)"
             style="fill:#5b4fb9;fill-opacity:1"
             x="0"
             y="0" />
          <path
             id="Rectangle_12"
             data-name="Rectangle 12"
             d="m 0,0 h 27.194 a 4,4 0 0 1 4,4 V 31.194 H 0 Z"
             transform="rotate(45,-204.70152,1469.2289)"
             fill="rgba(91,79,185,0.9)"
             style="fill:#5b4fb9;fill-opacity:1" />
          <rect
             id="Rectangle_8"
             data-name="Rectangle 8"
             width="31.194"
             height="31.194"
             transform="rotate(45,-189.10486,1431.5752)"
             fill="rgba(91,79,185,0.8)"
             style="fill:#5b4fb9;fill-opacity:1"
             x="0"
             y="0" />
          <path
             id="Rectangle_5"
             data-name="Rectangle 5"
             d="M 3,0 H 31.194 V 31.194 H 0 V 3 A 3,3 0 0 1 3,0 Z"
             transform="rotate(45,-195.565,1340.6683)"
             fill="rgba(91,79,185,0.7)"
             style="fill:#5b4fb9;fill-opacity:1" />
          <path
             id="Rectangle_6"
             data-name="Rectangle 6"
             d="M 3,0 H 31.194 V 31.194 H 0 V 3 A 3,3 0 0 1 3,0 Z"
             transform="rotate(45,-173.5075,1393.9198)"
             fill="rgba(91,79,185,0.7)"
             style="fill:#5b4fb9;fill-opacity:1" />
        </g>
      </g>
    </g>
    <text
       xml:space="preserve"
       style="font-style:normal;font-variant:normal;font-weight:normal;font-stretch:normal;font-size:11.9698px;font-family:'Product Sans Black';-inkscape-font-specification:'Product Sans Black, Normal';font-variant-ligatures:normal;font-variant-caps:normal;font-variant-numeric:normal;font-variant-east-asian:normal;white-space:pre;inline-size:64.9098;display:inline;fill:#000000;fill-opacity:1;stroke:none;stroke-width:26.8198;stroke-dasharray:none"
       x="796.08997"
       y="456.10117"
       id="text2"
       transform="matrix(4.0437446,-0.02537903,0.12268601,5.6300136,-2482.575,-2036.5223)"><tspan
         x="796.08997"
         y="456.10117"
         id="tspan1">ConCuriFy</tspan></text>
  </g>
</svg>
